Coordinates
version=1
nRows=10
nColumns=63
inDegrees=yes

Units are S.I. units (second, meters, Newtons, ...)
If the header above contains a line with 'inDegrees', this indicates whether rotational values are in degrees (yes) or radians (no).

endheader
time	pelvis_tilt	pelvis_list	pelvis_rotation	pelvis_tx	pelvis_ty	pelvis_tz	hip_flexion_r	hip_adduction_r	hip_rotation_r	knee_angle_r	knee_angle_r_beta	ankle_angle_r	subtalar_angle_r	mtp_angle_r	hip_flexion_l	hip_adduction_l	hip_rotation_l	knee_angle_l	knee_angle_l_beta	ankle_angle_l	subtalar_angle_l	mtp_angle_l	L5_S1_Flex_Ext	L5_S1_Lat_Bending	L5_S1_axial_rotation	L4_L5_Flex_Ext	L4_L5_Lat_Bending	L4_L5_axial_rotation	L3_L4_Flex_Ext	L3_L4_Lat_Bending	L3_L4_axial_rotation	L2_L3_Flex_Ext	L2_L3_Lat_Bending	L2_L3_axial_rotation	L1_L2_Flex_Ext	L1_L2_Lat_Bending	L1_L2_axial_rotation	L1_T12_Flex_Ext	L1_T12_Lat_Bending	L1_T12_axial_rotation	Abs_r3	Abs_r2	Abs_r1	Abs_t1	Abs_t2	neck_flexion	neck_bending	neck_rotation	arm_flex_r	arm_add_r	arm_rot_r	elbow_flex_r	pro_sup_r	wrist_flex_r	wrist_dev_r	arm_flex_l	arm_add_l	arm_rot_l	elbow_flex_l	pro_sup_l	wrist_flex_l	wrist_dev_l
     10.10169492	     -3.55414069	      3.95695617	    102.29625310	      0.21472653	      0.77985130	      0.68328661	     -6.10810049	      5.41115097	      0.73135586	      9.72004506	      0.16964679	     28.70801978	    -12.20095417	      0.00000000	     -2.89379872	     -2.97268027	     12.87437309	     10.72679981	      0.18721797	     32.28056079	     -6.05215081	      0.00000000	     -0.02178479	     -0.26921295	      0.09843602	     -0.04045654	     -0.35805322	      0.10458828	     -0.03579023	     -0.65456436	      0.10458828	     -0.02489784	     -0.65456436	      0.08613152	     -0.02022936	     -0.54897904	      0.07997927	     -0.01244783	     -0.41701085	      0.07382702	     -0.15560659	     -3.04539070	      0.54747163	      0.00000000	      0.00000000	     22.62620599	      3.88285918	      2.09617082	     -4.43081726	    -15.14050650	     35.33195885	     35.00906096	     86.88102294	     -0.94215588	      8.34555371	     16.33439674	    -11.80135502	    168.19875735	     17.12802357	     11.34189649	     -8.31897698	     -4.42343747
     10.11864407	     -3.56091494	      4.20164802	    102.36199527	      0.21465234	      0.77966175	      0.68281010	     -6.40899966	      5.47462727	      0.61929273	      9.87832267	      0.17240926	     28.44370937	    -12.52562722	      0.00000000	     -3.31264680	     -3.05090263	     12.90030119	     10.52620571	      0.18371695	     32.38730348	     -5.96590481	      0.00000000	     -0.03249205	     -0.25666441	      0.07486821	     -0.06034098	     -0.34136367	      0.07954747	     -0.05338118	     -0.62405385	      0.07954747	     -0.03713516	     -0.62405385	      0.06550968	     -0.03017211	     -0.52339006	      0.06083042	     -0.01856596	     -0.39757317	      0.05615116	     -0.23208744	     -2.90343914	      0.41639452	      0.00000000	      0.00000000	     21.24633469	      4.05469620	      2.52079782	     -4.57383265	    -15.16542348	     34.81079694	     35.16614925	     86.61207381	     -0.73160163	      8.08294246	     16.53435136	    -11.49663289	    168.47522268	     17.29588081	     11.48701832	     -8.32057922	     -4.30108529
     10.13559322	     -3.53673767	      4.40633052	    102.76068148	      0.21406561	      0.77948268	      0.68222349	     -6.84898431	      5.65051849	      0.74013729	      9.71032576	      0.16947716	     27.70803644	    -13.76591982	      0.00000000	     -3.65528909	     -3.19835774	     13.02881034	     10.27369077	      0.17930973	     32.59885287	     -5.44407482	      0.00000000	     -0.03836362	     -0.23693969	     -0.03474859	     -0.07124507	     -0.31512979	     -0.03692038	     -0.06302758	     -0.57609517	     -0.03692038	     -0.04384578	     -0.57609517	     -0.03040502	     -0.03562445	     -0.48316743	     -0.02823323	     -0.02192097	     -0.36701959	     -0.02606144	     -0.27402747	     -2.68030922	     -0.19326125	      0.00000000	      0.00000000	     19.91829201	      4.60547968	      3.66570169	     -4.83950668	    -14.98047911	     33.36027950	     35.13511084	     86.50751597	      0.48318464	      7.80148360	     16.50228463	    -10.91266878	    170.43523887	     16.91607237	     12.73874837	     -8.27950184	     -3.84939299
     10.15254237	     -3.49048157	      4.57527204	    103.10624745	      0.21339078	      0.77934067	      0.68169200	     -7.16534424	      5.78012500	      0.27351511	      9.69254475	      0.16916682	     27.08623755	    -14.37231201	      0.00000000	     -3.95100431	     -3.34173066	     13.22126340	     10.04644897	      0.17534361	     32.66575477	     -5.16518068	      0.00000000	     -0.03740434	     -0.21435753	     -0.14937343	     -0.06946359	     -0.28509551	     -0.15870927	     -0.06145158	     -0.52118890	     -0.15870927	     -0.04274942	     -0.52118890	     -0.13070175	     -0.03473367	     -0.43711787	     -0.12136591	     -0.02137284	     -0.33203981	     -0.11203007	     -0.26717543	     -2.42485525	     -0.83077021	      0.00000000	      0.00000000	     18.49670050	      4.81146657	      4.35019316	     -4.87967830	    -15.01849260	     33.09011578	     35.16752710	     86.50376445	      0.94672139	      7.83942816	     16.22695168	    -10.36459413	    172.24251874	     16.20474601	     14.31228172	     -8.12159301	     -3.29443639
     10.16949153	     -3.40650655	      4.75075615	    103.49785048	      0.21272091	      0.77928562	      0.68128306	     -7.45715799	      5.94908967	     -0.28510312	      9.69366708	      0.16918641	     26.59165634	    -14.69978194	      0.00000000	     -4.20707174	     -3.53225953	     13.56211336	      9.88809795	      0.17257987	     32.74663422	     -4.92809623	      0.00000000	     -0.04111291	     -0.18758131	     -0.28812823	     -0.07635079	     -0.24948314	     -0.30613624	     -0.06754440	     -0.45608519	     -0.30613624	     -0.04698795	     -0.45608519	     -0.25211220	     -0.03817745	     -0.38251580	     -0.23410419	     -0.02349192	     -0.29056344	     -0.21609617	     -0.29366543	     -2.12195725	     -1.60248278	      0.00000000	      0.00000000	     17.23878912	      4.70367139	      4.64675592	     -4.76990763	    -15.08265518	     33.19968825	     35.11320223	     86.58352063	      1.34687745	      8.00026806	     15.64354613	     -9.70134173	    175.00863347	     14.83633994	     16.99600885	     -8.25691772	     -2.46297850
     10.18644068	     -3.38642774	      4.88074041	    103.83296252	      0.21209039	      0.77920604	      0.68146819	     -7.65897602	      6.00687914	     -1.17708552	      9.68092775	      0.16896406	     26.24977937	    -14.63782477	      0.00000000	     -4.28028345	     -3.58581509	     14.05783514	      9.99267600	      0.17440510	     32.67035507	     -5.10483189	      0.00000000	     -0.05964668	     -0.16804631	     -0.34906842	     -0.11076985	     -0.22350159	     -0.37088519	     -0.09799353	     -0.40858779	     -0.37088519	     -0.06817019	     -0.40858779	     -0.30543487	     -0.05538791	     -0.34268003	     -0.28361809	     -0.03408211	     -0.26030373	     -0.26180131	     -0.42605027	     -1.90097342	     -1.94141382	      0.00000000	      0.00000000	     16.55088867	      4.39588395	      4.34625844	     -4.77320325	    -15.23640552	     33.23740839	     35.22483090	     86.66923859	      1.51966274	      8.11981716	     15.17489954	     -8.74327158	    180.37262587	     12.97359328	     21.20100741	     -8.86076859	     -1.71919844
     10.20338983	     -3.31989773	      4.94295946	    104.22139699	      0.21154105	      0.77912127	      0.68175367	     -7.77628013	      6.13152731	     -1.82021123	      9.61006128	      0.16772721	     25.87041650	    -14.73630320	      0.00000000	     -4.28178732	     -3.70269650	     14.54866598	     10.00837768	      0.17467914	     32.55059833	     -5.11884691	      0.00000000	     -0.06888235	     -0.14382520	     -0.45929112	     -0.12792142	     -0.19128752	     -0.48799682	     -0.11316682	     -0.34969659	     -0.48799682	     -0.07872564	     -0.34969659	     -0.40187973	     -0.06396415	     -0.29328835	     -0.37317404	     -0.03935938	     -0.22278523	     -0.34446834	     -0.49201977	     -1.62697942	     -2.55443943	      0.00000000	      0.00000000	     16.12143815	      3.86501838	      4.23759700	     -4.53019745	    -15.45201144	     33.92666013	     35.26066528	     86.92957881	      1.59127730	      8.35091426	     14.41227504	     -8.04770899	    184.94281503	     10.87522197	     24.98608432	     -9.80282324	     -0.58358893
     10.22033898	     -3.29210440	      4.96360573	    104.53635248	      0.21113954	      0.77907782	      0.68200862	     -7.80839195	      6.20468327	     -2.37608863	      9.59760013	      0.16750972	     25.67745850	    -14.73736346	      0.00000000	     -4.25147633	     -3.75624884	     15.01125612	     10.03351354	      0.17511785	     32.40776439	     -5.25083647	      0.00000000	     -0.07490572	     -0.12499071	     -0.54380727	     -0.13910741	     -0.16623764	     -0.57779522	     -0.12306260	     -0.30390241	     -0.57779522	     -0.08560974	     -0.30390241	     -0.47583136	     -0.06955745	     -0.25488105	     -0.44184341	     -0.04280113	     -0.19361061	     -0.40785545	     -0.53504405	     -1.41391988	     -3.02449289	      0.00000000	      0.00000000	     16.01873752	      3.07252486	      3.94778254	     -4.31218937	    -15.63383674	     34.64758699	     35.23756164	     87.15228681	      1.36939823	      8.39297685	     13.70633268	     -7.61696818	    188.71448920	      8.88194829	     27.73086684	    -10.61814438	      0.31775018
     10.23728814	     -3.29391744	      4.99362976	    104.88317998	      0.21093615	      0.77918218	      0.68241183	     -7.82496107	      6.25650606	     -2.89977136	      9.58059812	      0.16721298	     25.68899202	    -14.44852981	      0.00000000	     -4.19304285	     -3.74654779	     16.09254006	     10.13172870	      0.17683202	     32.08607709	     -6.17213214	      0.00000000	     -0.08792338	     -0.10848878	     -0.62916026	     -0.16328251	     -0.14429008	     -0.66848278	     -0.14444932	     -0.26377962	     -0.66848278	     -0.10048763	     -0.26377962	     -0.55051523	     -0.08164565	     -0.22123032	     -0.51119271	     -0.05023942	     -0.16804912	     -0.47187020	     -0.62802790	     -1.22724678	     -3.49920063	      0.00000000	      0.00000000	     16.15861392	      2.24424920	      3.86356392	     -4.04314675	    -15.71825997	     35.44628027	     35.08299328	     87.18016892	      0.73741451	      8.18622978	     12.88497363	     -7.05830292	    202.14444243	      6.42850521	     17.84803298	     -9.95508410	      0.79158167
     10.25423729	     -3.27370156	      4.95002250	    105.07754361	      0.21091429	      0.77924413	      0.68252072	     -7.78096970	      6.32142156	     -3.08109425	      9.50836572	      0.16595229	     25.67247994	    -14.40819164	      0.00000000	     -4.13283730	     -3.82378157	     16.09707612	     10.08077430	      0.17594270	     32.10739373	     -5.76158459	      0.00000000	     -0.08598426	     -0.09213467	     -0.71997871	     -0.15968136	     -0.12253911	     -0.76497738	     -0.14126354	     -0.22401623	     -0.76497738	     -0.09827141	     -0.22401623	     -0.62998137	     -0.07984498	     -0.18788101	     -0.58498270	     -0.04913140	     -0.14271660	     -0.53998403	     -0.61417695	     -1.04224578	     -4.00430557	      0.00000000	      0.00000000	     16.52557739	      1.60592836	      4.17160325	     -3.76317855	    -15.76597857	     35.97215521	     34.92045008	     87.24082807	      0.79481369	      8.14033291	     12.57311567	     -7.21836451	    199.35200249	      5.65687303	     20.28152522	    -10.26147143	      0.84653214
